# xmcd
#
# Track frame offsets:
#	150
#	19166
#	37064
#	55864
#	72937
#	90860
#	108030
#	124709
#	141322
#	157113
#	175335
#	192512
#	210839
#	227400
#	243968
#	266290
#	299444
#	317698
#
# Disc length: 4499 seconds
#
# Revision: 0
# Processed by: cddbd v1.5.2PL0 Copyright (c) Steve Scherf et al.
# Submitted via: audiograbber 1.83.01
#
DISCID=f5119112
DTITLE=x - x
DYEAR=1900
DGENRE=
TTITLE0=Errtime
TTITLE1=Talking that talk
TTITLE2=Fly away
TTITLE3=Buttons
TTITLE4=Get Ur Freak on
TTITLE5=Lose control
TTITLE6=Teary Eyed
TTITLE7=Never Gonna be the same
TTITLE8=Who Knew Main
TTITLE9=SOS
TTITLE10=Unfaithful
TTITLE11=Promiscous
TTITLE12=Let my Hair down
TTITLE13=Take it
TTITLE14=Klar
TTITLE15=Danke
TTITLE16=London Bridge
TTITLE17=Voodoo Doll
EXTD=
EXTT0=
EXTT1=
EXTT2=
EXTT3=
EXTT4=
EXTT5=
EXTT6=
EXTT7=
EXTT8=
EXTT9=
EXTT10=
EXTT11=
EXTT12=
EXTT13=
EXTT14=
EXTT15=
EXTT16=
EXTT17=
PLAYORDER=
